<svg width="134" height="146" viewBox="0 0 134 146" fill="none" xmlns="http://www.w3.org/2000/svg">
<rect width="134" height="146" rx="10" fill="#D9D9D9"/>
<path d="M20.6669 125.232L10.6914 13.3418H120.308L110.323 125.215L65.4334 137.66L20.6669 125.232Z" fill="#1572B6"/>
<path d="M65.501 128.147L101.774 118.09L110.308 22.4893H65.501V128.147Z" fill="#33A9DC"/>
<path d="M65.501 63.0272H83.66L84.9141 48.9749H65.501V35.252H99.912L99.5826 38.934L96.2092 76.7502H65.501V63.0272Z" fill="white"/>
<path d="M65.5823 98.6667L65.5218 98.6846L50.2391 94.5581L49.2618 83.6133H35.4883L37.4101 105.161L65.5198 112.962L65.5823 112.944V98.6667Z" fill="#EBEBEB"/>
<path d="M82.4931 76.1699L80.8401 94.5472L65.5347 98.6787V112.956L93.6671 105.16L93.8735 102.841L96.2607 76.1699H82.4931Z" fill="white"/>
<path d="M65.5477 35.252V48.9749H32.4007L32.1259 45.8912L31.5008 38.934L31.1724 35.252H65.5477ZM65.5011 63.0292V76.7522H50.4109L50.136 73.6685L49.51 66.7112L49.1826 63.0292H65.5011Z" fill="#EBEBEB"/>
</svg>
