<svg width="137" height="146" viewBox="0 0 137 146" fill="none" xmlns="http://www.w3.org/2000/svg">
<rect width="137" height="146" rx="10" fill="#D9D9D9"/>
<path d="M125.815 103.673C121.754 104.706 119.243 103.718 116.989 100.333C111.931 92.754 106.346 85.5222 100.958 78.1567C100.263 77.2037 99.5419 76.2686 98.6424 75.084C92.2655 83.6875 85.8976 91.8812 79.9215 100.404C77.784 103.45 75.5396 104.777 71.5496 103.7L95.5252 71.5215L73.2061 42.4604C77.0447 41.7123 79.6988 42.0953 82.0501 45.5331C87.2424 53.1212 92.9691 60.3442 98.678 67.9857C104.423 60.3709 110.078 53.139 115.422 45.6222C117.568 42.5762 119.875 41.4184 123.731 42.5406C120.81 46.4148 117.951 50.2267 115.074 54.0118C111.191 59.1151 107.379 64.2807 103.354 69.2772C101.92 71.0584 102.151 72.2162 103.434 73.8995C110.88 83.6875 118.236 93.5734 125.815 103.673ZM14.1844 70.9872C14.8257 67.772 15.2532 64.4945 16.1438 61.3417C21.4876 42.2556 43.3969 34.3201 58.4485 46.1476C67.2657 53.0856 69.4566 62.8647 69.0202 73.8906H19.3233C18.5752 93.6714 32.8163 105.615 50.9672 99.5228C57.3352 97.3853 61.0847 92.3978 62.964 86.1634C63.9169 83.0373 65.4933 82.5475 68.4324 83.4381C66.9272 91.24 63.5162 97.7593 56.3912 101.838C45.7037 107.948 30.4472 105.971 22.4227 97.4832C17.6846 92.4957 15.6718 86.2881 14.7812 79.5817C14.6476 78.5129 14.3715 77.462 14.1577 76.4022C14.1755 74.5972 14.1844 72.7922 14.1844 70.9872ZM19.4124 69.6601H64.3266C64.0327 55.3567 55.1265 45.1947 42.9516 45.1056C29.5922 44.9987 19.9913 54.9203 19.4124 69.6601Z" fill="black"/>
</svg>
