<svg width="134" height="146" viewBox="0 0 134 146" fill="none" xmlns="http://www.w3.org/2000/svg">
<rect width="134" height="146" rx="10" fill="#D9D9D9"/>
<g clip-path="url(#clip0_53_670)">
<path d="M51.5234 130.891C62.1219 130.891 70.6719 122.341 70.6719 111.742V92.5938H51.5234C40.925 92.5938 32.375 101.144 32.375 111.742C32.375 122.341 40.925 130.891 51.5234 130.891Z" fill="#0ACF83"/>
<path d="M32.375 73.4453C32.375 62.8469 40.925 54.2969 51.5234 54.2969H70.6719V92.5938H51.5234C40.925 92.5938 32.375 84.0437 32.375 73.4453Z" fill="#A259FF"/>
<path d="M32.375 35.1484C32.375 24.55 40.925 16 51.5234 16H70.6719V54.2969H51.5234C40.925 54.2969 32.375 45.7469 32.375 35.1484Z" fill="#F24E1E"/>
<path d="M70.6719 16H89.8203C100.419 16 108.969 24.55 108.969 35.1484C108.969 45.7469 100.419 54.2969 89.8203 54.2969H70.6719V16Z" fill="#FF7262"/>
<path d="M108.969 73.4453C108.969 84.0437 100.419 92.5938 89.8203 92.5938C79.2219 92.5938 70.6719 84.0437 70.6719 73.4453C70.6719 62.8469 79.2219 54.2969 89.8203 54.2969C100.419 54.2969 108.969 62.8469 108.969 73.4453Z" fill="#1ABCFE"/>
</g>
<defs>
<clipPath id="clip0_53_670">
<rect width="114" height="114" fill="white" transform="translate(11 16)"/>
</clipPath>
</defs>
</svg>
