<svg width="134" height="146" viewBox="0 0 134 146" fill="none" xmlns="http://www.w3.org/2000/svg">
<rect width="134" height="146" rx="10" fill="#D9D9D9"/>
<path fill-rule="evenodd" clip-rule="evenodd" d="M68.9999 18.5449C39.3002 18.5449 15.2168 42.623 15.2168 72.328C15.2168 96.0916 30.6273 116.251 51.9969 123.363C54.684 123.862 55.6708 122.197 55.6708 120.776C55.6708 119.494 55.6209 115.257 55.5977 110.763C40.6352 114.016 37.478 104.417 37.478 104.417C35.0314 98.2006 31.5063 96.5476 31.5063 96.5476C26.6257 93.2096 31.8742 93.279 31.8742 93.279C37.274 93.6576 40.1187 98.8214 40.1187 98.8214C44.9156 107.042 52.7005 104.666 55.7696 103.292C56.2523 99.8162 57.6462 97.4427 59.1843 96.0997C47.2383 94.7415 34.6796 90.1289 34.6796 69.5207C34.6796 63.6488 36.7815 58.851 40.222 55.0837C39.6627 53.73 37.8217 48.2597 40.7421 40.8515C40.7421 40.8515 45.2576 39.406 55.5354 46.3645C59.8264 45.1719 64.4283 44.5725 68.9999 44.5521C73.5688 44.5725 78.1733 45.1702 82.4723 46.3627C92.7377 39.4043 97.2478 40.8497 97.2478 40.8497C100.175 48.2571 98.3344 53.7282 97.776 55.0819C101.224 58.8493 103.311 63.6471 103.311 69.519C103.311 90.1761 90.7293 94.7236 78.7531 96.056C80.6831 97.7251 82.402 100.999 82.402 106.016C82.402 113.212 82.3396 119.004 82.3396 120.775C82.3396 122.207 83.3086 123.884 86.034 123.355C107.391 116.236 122.784 96.0827 122.784 72.328C122.783 42.6247 98.7022 18.5449 68.9999 18.5449Z" fill="#181616"/>
<path d="M35.5873 95.7649C35.4689 96.0321 35.0485 96.1123 34.6655 95.9297C34.2737 95.7551 34.0555 95.3909 34.1819 95.1228C34.2977 94.8467 34.719 94.771 35.1082 94.9553C35.5001 95.1308 35.7227 95.4986 35.5865 95.7658L35.5873 95.7649ZM37.7658 98.1954C37.5102 98.4332 37.0088 98.3228 36.6686 97.9461C36.3159 97.572 36.25 97.0706 36.5109 96.8292C36.7763 96.5923 37.2626 96.7045 37.6153 97.0786C37.9662 97.458 38.0357 97.955 37.7667 98.1963L37.7658 98.1954ZM39.8873 101.292C39.5577 101.522 39.018 101.307 38.6849 100.829C38.3554 100.35 38.3554 99.7754 38.6938 99.5465C39.026 99.3167 39.5577 99.5242 39.8962 99.9981C40.2239 100.483 40.2239 101.059 39.8873 101.292ZM42.7916 104.286C42.4977 104.611 41.8689 104.523 41.4094 104.081C40.94 103.647 40.8091 103.03 41.1039 102.706C41.4031 102.38 42.0346 102.47 42.4968 102.91C42.9662 103.343 43.1078 103.961 42.7934 104.285L42.7916 104.286ZM46.7994 106.023C46.6685 106.444 46.0647 106.636 45.4546 106.456C44.8463 106.272 44.4482 105.779 44.5729 105.353C44.6975 104.929 45.3058 104.73 45.9195 104.921C46.5278 105.105 46.9259 105.595 46.7994 106.023ZM51.2018 106.345C51.2169 106.788 50.7004 107.155 50.0618 107.164C49.4179 107.179 48.8968 106.819 48.8906 106.383C48.8906 105.935 49.3965 105.572 50.0395 105.56C50.6781 105.548 51.2027 105.905 51.2027 106.344L51.2018 106.345ZM55.2969 105.648C55.3735 106.08 54.929 106.525 54.294 106.643C53.6706 106.759 53.0917 106.49 53.0115 106.061C52.9349 105.618 53.3874 105.173 54.0108 105.059C54.6467 104.949 55.2167 105.209 55.2969 105.648Z" fill="#181616"/>
</svg>
