<svg width="137" height="146" viewBox="0 0 137 146" fill="none" xmlns="http://www.w3.org/2000/svg">
<rect width="137" height="146" rx="10" fill="#D9D9D9"/>
<g clip-path="url(#clip0_53_666)">
<path d="M123.915 68.1852L71.8136 16.0853C68.815 13.0849 63.9486 13.0849 60.9453 16.0853L50.1271 26.9053L63.8512 40.6294C67.0416 39.5527 70.6981 40.2749 73.24 42.8168C75.7952 45.3748 76.5118 49.0625 75.4086 52.2633L88.6354 65.4911C91.8353 64.3879 95.5286 65.1007 98.0829 67.6606C101.656 71.231 101.656 77.0192 98.0829 80.5915C97.2337 81.4411 96.2255 82.115 95.1158 82.5748C94.0061 83.0346 92.8167 83.2713 91.6155 83.2713C90.4143 83.2713 89.2249 83.0346 88.1152 82.5748C87.0055 82.115 85.9973 81.4411 85.1481 80.5915C83.8723 79.3149 83.0027 77.6895 82.6486 75.9197C82.2945 74.15 82.4718 72.3151 83.1583 70.6459L70.8238 58.3114L70.8219 90.7744C71.7168 91.2151 72.5339 91.7988 73.241 92.5025C76.8124 96.0729 76.8124 101.859 73.241 105.437C69.6686 109.008 63.8786 109.008 60.3101 105.437C56.7387 101.86 56.7387 96.0738 60.3101 92.5025C61.1657 91.6455 62.1834 90.9674 63.3039 90.5078V57.7443C62.1825 57.286 61.1645 56.6074 60.3101 55.7487C57.6046 53.0451 56.9532 49.0748 58.341 45.7511L44.8107 32.2208L9.08545 67.9442C7.64415 69.3859 6.83447 71.3411 6.83447 73.3797C6.83447 75.4184 7.64415 77.3735 9.08545 78.8153L61.1882 130.915C64.1887 133.916 69.0532 133.916 72.0584 130.915L123.916 79.0573C125.357 77.6151 126.167 75.6598 126.167 73.6211C126.166 71.5824 125.357 69.6271 123.915 68.1852Z" fill="#F34F29"/>
</g>
<defs>
<clipPath id="clip0_53_666">
<rect width="121" height="121" fill="white" transform="translate(6 13)"/>
</clipPath>
</defs>
</svg>
