<svg width="134" height="146" viewBox="0 0 134 146" fill="none" xmlns="http://www.w3.org/2000/svg">
<rect width="134" height="146" rx="10" fill="#D9D9D9"/>
<path d="M21.8883 123.987L11.9614 12.6484H121.039L111.101 123.97L66.4335 136.352L21.8883 123.987Z" fill="#E44D26"/>
<path d="M66.5 126.887L102.594 116.88L111.086 21.751H66.5V126.887Z" fill="#F16529"/>
<path d="M66.5002 63.0456H48.4305L47.1823 49.0617H66.5002V35.4072H32.2588L32.5862 39.0704L35.9418 76.7011H66.5002V63.0456ZM66.5002 98.5094L66.4396 98.5262L51.2324 94.4186L50.261 83.5293H36.552L38.4649 104.969L66.4377 112.734L66.5002 112.717V98.5094Z" fill="#EBEBEB"/>
<path d="M66.4521 63.0456V76.7011H83.2668L81.6822 94.4106L66.4521 98.5213V112.728L94.4467 104.969L94.6521 102.663L97.8608 66.7127L98.1932 63.0456H94.5142H66.4521ZM66.4521 35.4072V49.0617H99.4364L99.7103 45.9939L100.333 39.0704L100.66 35.4072H66.4521Z" fill="white"/>
</svg>
