<svg width="137" height="146" viewBox="0 0 137 146" fill="none" xmlns="http://www.w3.org/2000/svg">
<rect width="137" height="146" rx="10" fill="#D9D9D9"/>
<path d="M11.2871 15.2871H125.713V129.714H11.2871V15.2871Z" fill="#F0DB4F"/>
<path d="M116.348 102.423C115.51 97.2029 112.106 92.8181 102.023 88.7295C98.5204 87.1198 94.6155 85.9672 93.4519 83.3128C93.0388 81.768 92.9839 80.8978 93.2453 79.9627C93.9958 76.928 97.6182 75.982 100.489 76.8522C102.338 77.4719 104.089 78.8969 105.145 81.1702C110.082 77.9728 110.072 77.9938 113.52 75.7964C112.258 73.8394 111.584 72.9363 110.758 72.099C107.788 68.7819 103.742 67.0735 97.27 67.2042L93.8989 67.6402C90.6686 68.4565 87.59 70.1521 85.7848 72.4254C80.368 78.5715 81.9128 89.3282 88.5041 93.755C94.9976 98.6288 104.537 99.7376 105.755 104.295C106.941 109.875 101.655 111.681 96.4007 111.039C92.5287 110.234 90.3752 108.266 88.0471 104.687C83.7619 107.167 83.7619 107.167 79.3562 109.701C80.4009 111.985 81.4987 113.019 83.2501 114.998C91.5388 123.405 112.281 122.992 116.001 110.267C116.152 109.83 117.154 106.916 116.348 102.423ZM73.4925 67.8779H62.7897L62.7458 95.5484C62.7458 101.433 63.0502 106.828 62.0932 108.481C60.5274 111.734 56.4699 111.331 54.6207 110.7C52.7387 109.775 51.7816 108.46 50.6729 106.6C50.3685 106.067 50.14 105.653 50.0632 105.621L41.3613 110.95C42.8083 113.92 44.9399 116.498 47.6702 118.172C51.7487 120.62 57.2304 121.371 62.9634 120.054C66.6946 118.968 69.9139 116.716 71.5994 113.289C74.0363 108.797 73.5135 103.359 73.4915 97.3445C73.5464 87.5321 73.4925 77.7214 73.4925 67.8779Z" fill="#323330"/>
</svg>
