<svg width="134" height="146" viewBox="0 0 134 146" fill="none" xmlns="http://www.w3.org/2000/svg">
<rect width="134" height="146" rx="10" fill="#D9D9D9"/>
<path d="M50.7568 103.287C50.7568 103.287 46.176 105.953 54.0211 106.853C63.5267 107.938 68.3843 107.783 78.8566 105.803C78.8566 105.803 81.6154 107.528 85.4611 109.023C61.9767 119.084 32.3135 108.44 50.7568 103.287ZM47.8855 90.1562C47.8855 90.1562 42.7464 93.9606 50.5983 94.7736C60.7525 95.8219 68.7696 95.9075 82.6494 93.2361C82.6494 93.2361 84.5645 95.182 87.5809 96.2447C59.1929 104.547 27.5742 96.8982 47.8855 90.1562Z" fill="#0074BD"/>
<path d="M72.0751 67.8779C77.8648 74.542 70.5569 80.5335 70.5569 80.5335C70.5569 80.5335 85.2486 72.9507 78.5028 63.4509C72.2001 54.5959 67.3685 50.1976 93.5271 35.0264C93.5271 35.0273 52.4653 45.2796 72.0751 67.8779Z" fill="#EA2D2E"/>
<path d="M103.134 113.001C103.134 113.001 106.525 115.797 99.3979 117.958C85.8467 122.064 42.9851 123.301 31.081 118.123C26.8039 116.26 34.8277 113.678 37.3521 113.134C39.9841 112.564 41.487 112.668 41.487 112.668C36.7275 109.317 10.7245 119.25 28.2808 122.099C76.1557 129.86 115.55 118.604 103.134 113.001ZM52.9625 76.5478C52.9625 76.5478 31.1627 81.7263 45.2433 83.6088C51.1896 84.4044 63.0379 84.2219 74.082 83.2955C83.1052 82.5373 92.1601 80.9182 92.1601 80.9182C92.1601 80.9182 88.9813 82.2817 86.6789 83.8519C64.537 89.6761 21.7734 86.9634 34.0858 81.0094C44.4947 75.9751 52.9625 76.5478 52.9625 76.5478ZM92.0698 98.4063C114.576 86.7145 104.169 75.4783 96.9052 76.9918C95.1294 77.3617 94.3328 77.6836 94.3328 77.6836C94.3328 77.6836 94.9939 76.6468 96.2547 76.2009C110.624 71.1512 121.672 91.0983 91.6201 98.9991C91.6201 98.9972 91.965 98.6849 92.0698 98.4063Z" fill="#0074BD"/>
<path d="M78.5032 10.5254C78.5032 10.5254 90.9646 22.9945 66.6807 42.1623C47.2064 57.5431 62.2403 66.3107 66.674 76.3323C55.3052 66.0762 46.9662 57.0463 52.5598 48.6429C60.7739 36.3102 83.5298 30.3284 78.5032 10.5254Z" fill="#EA2D2E"/>
<path d="M55.1745 130.099C76.7725 131.48 109.948 129.33 110.733 119.109C110.733 119.109 109.223 122.984 92.8817 126.058C74.4451 129.529 51.7016 129.124 38.2168 126.898C38.2168 126.899 40.9795 129.186 55.1745 130.099Z" fill="#0074BD"/>
</svg>
