<svg width="134" height="146" viewBox="0 0 134 146" fill="none" xmlns="http://www.w3.org/2000/svg">
<rect width="134" height="146" rx="10" fill="#D9D9D9"/>
<path fill-rule="evenodd" clip-rule="evenodd" d="M90.6626 51.1426C92.2426 55.713 93.3805 60.379 93.7546 65.2152C94.2192 71.215 94.0066 77.1724 92.7416 83.0737C92.7072 83.2362 92.6343 83.3887 92.5802 83.5462C92.1835 83.5472 91.7789 83.498 91.3911 83.558C88.1141 84.0729 84.8401 84.6064 81.566 85.137C78.1817 85.6853 74.7925 86.2119 71.4142 86.7976C70.2172 87.0043 68.7357 86.7573 68.2524 88.413C68.2386 88.4583 68.1008 88.4661 68.021 88.4917L68.1844 78.5978L68.0181 54.7247L69.595 54.454C72.1741 54.0317 74.7532 53.6035 77.3342 53.193C80.4143 52.7038 83.4974 52.2283 86.5794 51.7509C87.9389 51.5393 89.3003 51.3454 90.6626 51.1426Z" fill="#439934"/>
<path fill-rule="evenodd" clip-rule="evenodd" d="M64.7647 117.335C63.1011 115.905 61.3794 114.537 59.7848 113.033C51.204 104.94 44.9276 95.4138 41.8367 83.9291C40.9852 80.7683 40.4172 77.5563 40.2351 74.2901C40.1071 72.0044 39.922 69.698 40.0835 67.4241C40.5137 61.3761 41.3878 55.3862 43.1616 49.5606L43.2591 49.4248C43.4313 49.6542 43.6794 49.8569 43.767 50.1158C45.4985 55.2149 47.2172 60.3179 48.9271 65.4238C54.2998 81.4692 59.6657 97.5184 65.0472 113.56C65.1526 113.873 65.4252 114.13 65.6211 114.412L64.7647 117.335Z" fill="#45A538"/>
<path fill-rule="evenodd" clip-rule="evenodd" d="M90.6624 51.1435C89.3001 51.3463 87.9377 51.5402 86.5783 51.7499C83.4962 52.2273 80.4131 52.7027 77.333 53.192C74.752 53.6025 72.1729 54.0307 69.5939 54.453L68.0169 54.7237L68.0051 53.695C67.9529 52.8494 67.8633 52.0048 67.8535 51.1592C67.7856 45.7668 67.7432 40.3744 67.6763 34.982C67.6349 31.6066 67.5729 28.2322 67.504 24.8577C67.4617 22.761 67.4164 20.6633 67.3219 18.5695C67.2707 17.4444 67.0896 16.3252 67.0158 15.2C66.9744 14.5533 67.0315 13.9016 67.0443 13.252C67.8486 14.8102 68.6351 16.3803 69.4619 17.9267C70.7682 20.3719 72.8492 22.1733 74.7224 24.1391C82.1279 31.9078 87.3854 40.9405 90.6624 51.1435Z" fill="#46A037"/>
<path fill-rule="evenodd" clip-rule="evenodd" d="M68.0198 88.4913C68.0995 88.4657 68.2383 88.4579 68.2511 88.4126C68.7345 86.7569 70.2159 87.0039 71.4129 86.7972C74.7913 86.2125 78.1805 85.6849 81.5648 85.1366C84.8388 84.606 88.1129 84.0725 91.3898 83.5576C91.7777 83.4966 92.1823 83.5468 92.579 83.5458C91.9667 85.7311 91.4843 87.9637 90.7077 90.089C89.8257 92.4997 88.7586 94.8524 87.6256 97.1588C85.9294 100.599 83.8301 103.825 81.3719 106.769C79.4828 109.041 77.3773 111.141 75.2668 113.215C74.1003 114.362 72.7251 115.296 71.4454 116.327L71.1137 116.1L69.9186 115.078L68.6823 112.368C67.8378 109.207 67.377 105.956 67.3101 102.684L67.3327 102.132L67.501 99.7437C67.5571 98.9287 67.6319 98.1146 67.6664 97.2976C67.7934 94.3621 67.9036 91.4267 68.0198 88.4913Z" fill="#409433"/>
<path fill-rule="evenodd" clip-rule="evenodd" d="M68.0196 88.4914C67.9034 91.4268 67.7932 94.3622 67.6682 97.2986C67.6337 98.1157 67.5589 98.9297 67.5028 99.7448L66.7497 100.029C65.0773 95.1055 63.4039 90.2338 61.7668 85.3493C59.0598 77.2686 56.3853 69.175 53.6822 61.0923C51.4989 54.5684 49.3005 48.0495 47.0869 41.5358C46.9835 41.2306 46.6862 40.9924 46.4795 40.7227L51.299 31.8613C51.4644 32.1488 51.6829 32.4175 51.7872 32.7266C54.0194 39.324 56.2401 45.9252 58.4495 52.5302C61.3199 61.1238 64.1726 69.7243 67.0411 78.3189C67.1553 78.6625 67.3443 78.9794 67.5244 79.3643L68.184 78.5965L68.0196 88.4914Z" fill="#4FAA41"/>
<path fill-rule="evenodd" clip-rule="evenodd" d="M46.4806 40.7236C46.6874 40.9934 46.9837 41.2316 47.088 41.5367C49.3016 48.0505 51.5001 54.5693 53.6833 61.0933C56.3864 69.176 59.061 77.2695 61.768 85.3503C63.404 90.2338 65.0775 95.1064 66.7509 100.03L67.5039 99.7458L67.3356 102.134L67.183 102.684C66.9212 105.299 66.7007 107.919 66.3818 110.528C66.2213 111.835 65.8807 113.119 65.6218 114.413C65.4269 114.13 65.1532 113.874 65.0479 113.56C59.6663 97.5181 54.3005 81.4699 48.9278 65.4246C47.2185 60.3183 45.4985 55.2156 43.7677 50.1165C43.6801 49.8576 43.433 49.6549 43.2598 49.4255L46.4806 40.7236Z" fill="#4AA73C"/>
<path fill-rule="evenodd" clip-rule="evenodd" d="M68.1833 78.5972L67.5238 79.365C67.3436 78.9801 67.1547 78.6622 67.0405 78.3196C64.173 69.725 61.3193 61.1245 58.4488 52.531C56.2395 45.9259 54.0187 39.3247 51.7866 32.7273C51.6832 32.4182 51.4647 32.1485 51.2983 31.862L57.2587 24.0215C57.4467 24.2725 57.7145 24.496 57.8119 24.7785C59.4667 29.6226 61.1067 34.4726 62.7368 39.3256C64.2596 43.8576 65.7598 48.3966 67.3003 52.9227C67.4037 53.2259 67.763 53.4405 68.0032 53.6965L68.015 54.7251C68.0721 62.6808 68.1282 70.6395 68.1833 78.5972Z" fill="#57AE47"/>
<path fill-rule="evenodd" clip-rule="evenodd" d="M68.0052 53.6945C67.765 53.4385 67.4057 53.2239 67.3024 52.9207C65.7618 48.3946 64.2616 43.8556 62.7388 39.3236C61.1087 34.4706 59.4687 29.6216 57.814 24.7765C57.7165 24.494 57.4488 24.2705 57.2607 24.0195C59.199 22.1216 61.0772 20.1558 63.0932 18.3456C64.8857 16.7371 66.3268 15.0125 66.3928 12.4708C66.3957 12.3655 66.4509 12.2602 66.5355 11.9648L67.0464 13.2504C67.0336 13.9011 66.9755 14.5518 67.0179 15.1985C67.0917 16.3237 67.2728 17.4429 67.324 18.568C67.4185 20.6618 67.4638 22.7595 67.5061 24.8562C67.574 28.2307 67.6361 31.6051 67.6784 34.9805C67.7443 40.3729 67.7877 45.7653 67.8556 51.1577C67.8635 52.0053 67.952 52.8489 68.0052 53.6945Z" fill="#60B24F"/>
<path fill-rule="evenodd" clip-rule="evenodd" d="M65.6201 114.412C65.879 113.117 66.2196 111.832 66.38 110.526C66.6999 107.919 66.9195 105.297 67.1813 102.683L67.2463 102.673L67.3112 102.684C67.3782 105.955 67.8389 109.207 68.6835 112.368C68.5102 112.596 68.2651 112.8 68.1735 113.058C67.4579 115.076 66.7836 117.11 66.064 119.128C65.9656 119.403 65.6919 119.618 65.499 119.86L64.7637 117.334L65.6201 114.412Z" fill="#A9AA88"/>
<path fill-rule="evenodd" clip-rule="evenodd" d="M65.5 119.861C65.6929 119.619 65.9676 119.404 66.065 119.129C66.7846 117.111 67.4599 115.078 68.1745 113.059C68.2661 112.801 68.5102 112.598 68.6845 112.369L69.9198 115.08C69.6757 115.427 69.3391 115.739 69.2032 116.125L66.8368 123.073C66.7393 123.352 66.4066 123.549 66.1841 123.784L65.5 119.861Z" fill="#B6B598"/>
<path fill-rule="evenodd" clip-rule="evenodd" d="M66.1841 123.783C66.4075 123.549 66.7393 123.351 66.8367 123.072L69.2032 116.124C69.338 115.739 69.6757 115.426 69.9198 115.079L71.1158 116.1C70.538 116.671 70.2171 117.33 70.41 118.164L70.0468 119.353C69.8814 119.557 69.6422 119.734 69.5605 119.968C68.7346 122.333 67.9461 124.711 67.1143 127.077C67.009 127.377 66.7166 127.612 66.5099 127.876C66.4026 126.511 66.2933 125.148 66.1841 123.783Z" fill="#C2C1A7"/>
<path fill-rule="evenodd" clip-rule="evenodd" d="M66.5109 127.876C66.7166 127.611 67.0089 127.376 67.1153 127.077C67.9471 124.712 68.7355 122.334 69.5614 119.968C69.6431 119.735 69.8814 119.557 70.0477 119.354L69.5467 124.812C69.4128 124.966 69.2189 125.101 69.1549 125.281C68.5889 126.87 68.0553 128.471 67.4874 130.06C67.3702 130.387 67.1458 130.677 66.9706 130.983C66.815 130.779 66.5364 130.582 66.5236 130.37C66.4734 129.542 66.5079 128.708 66.5109 127.876Z" fill="#CECDB7"/>
<path fill-rule="evenodd" clip-rule="evenodd" d="M66.9697 130.983C67.1449 130.675 67.3694 130.386 67.4865 130.059C68.0555 128.471 68.588 126.871 69.1541 125.281C69.218 125.101 69.4129 124.967 69.5458 124.812L69.5576 128.395L68.3587 131.47L66.9697 130.983Z" fill="#DBDAC7"/>
<path fill-rule="evenodd" clip-rule="evenodd" d="M68.3584 131.471L69.5574 128.396L69.8044 132.034L68.3584 131.471Z" fill="#EBE9DC"/>
<path fill-rule="evenodd" clip-rule="evenodd" d="M70.4098 118.165C70.2168 117.331 70.5368 116.671 71.1156 116.101L71.4473 116.327L70.4098 118.165Z" fill="#CECDB7"/>
<path fill-rule="evenodd" clip-rule="evenodd" d="M67.3111 102.685L67.2461 102.674L67.1812 102.684L67.3337 102.134L67.3111 102.685Z" fill="#4FAA41"/>
</svg>
