<svg width="134" height="146" viewBox="0 0 134 146" fill="none" xmlns="http://www.w3.org/2000/svg">
<rect width="134" height="146" rx="10" fill="#D9D9D9"/>
<path d="M94.0146 99.4768C94.726 93.5563 94.513 92.6872 98.9229 93.6469L100.042 93.7448C103.433 93.8989 107.869 93.1992 110.476 91.9885C116.086 89.3848 119.412 85.0394 113.881 86.1803C101.263 88.784 100.396 84.511 100.396 84.511C113.72 64.7412 119.29 39.6444 114.481 33.5009C101.368 16.7453 78.6691 24.6686 78.2894 24.8734L78.1679 24.8961C75.6748 24.3786 72.8845 24.0696 69.7498 24.0188C64.0395 23.9246 59.7067 25.516 56.4197 28.0081C56.4197 28.0081 15.9258 11.325 17.8099 48.9887C18.2104 57.0009 29.2939 109.615 42.5142 93.723C47.3464 87.9122 52.0154 82.9985 52.0154 82.9985C54.3335 84.5382 57.1103 85.3248 60.0212 85.0421L60.2468 84.85C60.1761 85.5713 60.207 86.2773 60.3365 87.1129C56.9318 90.9182 57.9323 91.5861 51.1236 92.9872C44.2343 94.4064 48.2816 96.9339 50.9233 97.5946C54.1269 98.3957 61.5373 99.5303 66.5453 92.5214L66.3459 93.3207C67.6817 94.39 67.592 101.003 67.7805 105.727C67.9699 110.452 68.2862 114.861 69.2495 117.461C70.2129 120.06 71.3493 126.756 80.2976 124.838C87.776 123.24 93.4935 120.933 94.0146 99.4768Z" fill="black"/>
<path d="M77.3838 129.514C73.4262 129.514 70.8488 127.983 69.2837 126.505C66.9211 124.275 65.984 121.403 65.424 119.688L65.182 118.972C64.0546 115.929 63.6722 111.547 63.4456 105.905C63.4112 105.057 63.3876 104.185 63.3613 103.259C63.3423 102.582 63.3188 101.733 63.2843 100.845C61.8585 101.525 60.3451 102.003 58.7875 102.266C55.9972 102.743 52.9975 102.589 49.87 101.807C47.6633 101.255 45.3705 100.111 44.0637 98.3449C40.2547 101.681 36.6215 101.229 34.6423 100.568C31.1505 99.4034 28.0258 96.1309 25.0886 90.5656C22.9961 86.6008 20.9724 81.4351 19.0729 75.211C15.7651 64.3723 13.6635 52.9562 13.4768 49.208C12.8896 37.4766 16.0478 29.0865 22.8619 24.2734C33.611 16.6809 49.8972 21.1459 55.8349 23.1732C59.8243 20.7689 64.5177 19.599 69.8211 19.6833C72.6694 19.7295 75.3818 19.9796 77.9012 20.4291C80.5293 19.6026 85.7203 18.4163 91.6626 18.4906C102.611 18.6211 111.684 22.8878 117.898 30.8292C122.333 36.4951 120.14 48.3933 118.439 54.9817C116.044 64.249 111.849 74.1054 106.696 82.6858C108.096 82.6957 110.123 82.5281 113.005 81.9327C118.691 80.7591 120.354 83.8077 120.805 85.1725C122.613 90.6481 114.754 94.786 112.302 95.9243C109.161 97.3824 104.04 98.2705 99.8461 98.0784L99.663 98.0666L98.561 97.9697L98.4523 98.8886L98.3471 99.7867C98.0653 110.661 96.512 117.547 93.3156 122.098C89.9652 126.868 85.3089 128.205 81.2072 129.084C79.808 129.383 78.5365 129.514 77.3838 129.514ZM69.0553 89.9367C71.61 91.9812 71.8339 95.8282 72.0342 103.017C72.0595 103.915 72.0831 104.764 72.1148 105.557C72.2109 107.958 72.4365 113.582 73.3174 115.958C73.4416 116.294 73.553 116.635 73.6708 116.996C74.6523 120.002 75.1444 121.509 79.3884 120.601C82.9508 119.837 84.7824 119.152 86.2161 117.111C88.2995 114.144 89.465 108.176 89.6788 99.3716L94.0134 99.4768L89.7087 98.9602L89.8356 97.8854C90.248 94.342 90.5452 91.7827 92.9133 90.0898C94.8137 88.7323 96.9787 88.8637 98.7033 89.1745C96.8083 87.7426 96.2845 86.0634 96.1449 85.3746L95.7833 83.5938L96.7993 82.0867C102.651 73.4049 107.476 62.7347 110.039 52.8112C112.672 42.615 111.869 37.2002 111.066 36.1761C100.437 22.5941 82.0047 28.202 80.0798 28.8382L79.7545 29.014L78.1233 29.3176L77.2877 29.1445C74.984 28.666 72.4247 28.4014 69.6815 28.357C65.3714 28.2845 61.8941 29.3031 59.0431 31.4663L57.0647 32.9662L54.7692 32.0209C49.8646 30.0154 35.4588 25.9835 27.8572 31.3675C23.6377 34.3564 21.7155 40.2125 22.1433 48.7739C22.2847 51.6005 24.205 62.3006 27.3733 72.678C31.7513 87.0194 35.7298 91.7836 37.3909 92.3373C37.6809 92.4352 38.4331 91.8507 39.1817 90.9517C42.3028 87.2101 45.5347 83.5623 48.8731 80.0132L51.3834 77.3715L54.4185 79.3879C55.6419 80.2008 56.9913 80.6621 58.377 80.7491L65.6152 74.5757L64.5667 85.2767C64.5431 85.5169 64.5313 85.844 64.6256 86.4512L64.9409 88.4794L63.5725 90.0092L63.4148 90.1868L67.3914 92.022L69.0553 89.9367Z" fill="black"/>
<path d="M113.881 86.1804C101.262 88.784 100.394 84.5111 100.394 84.5111C113.719 64.7403 119.289 39.6426 114.482 33.501C101.369 16.7462 78.6679 24.6696 78.2891 24.8753L78.1667 24.897C75.6736 24.3796 72.8833 24.0714 69.7468 24.0207C64.0365 23.9274 59.7055 25.5178 56.4186 28.01C56.4186 28.01 15.9237 11.3278 17.8069 48.9906C18.2074 57.0037 29.2909 109.618 42.5112 93.7258C47.3434 87.9149 52.0115 83.0013 52.0115 83.0013C54.3306 84.541 57.1064 85.3276 60.0164 85.0449L60.2429 84.8527C60.1722 85.5741 60.2049 86.2801 60.3336 87.1156C56.9279 90.921 57.9284 91.5889 51.1197 92.99C44.2304 94.4091 48.2777 96.9367 50.9203 97.5973C54.123 98.3985 61.5343 99.5331 66.5414 92.5241L66.3411 93.3234C67.676 94.3928 68.6131 100.276 68.4563 105.609C68.2986 110.943 68.1935 114.605 69.2456 117.465C70.2969 120.325 71.3445 126.76 80.2946 124.842C87.773 123.24 91.6481 119.086 92.1882 112.159C92.5707 107.233 93.4362 107.962 93.4914 103.559L94.1865 101.474C94.9877 94.7979 94.3134 92.6447 98.9217 93.6461L100.041 93.744C103.432 93.898 107.87 93.1984 110.475 91.9876C116.085 89.3858 119.412 85.0394 113.881 86.1804Z" fill="#336791"/>
<path d="M77.8361 126.841C70.3758 126.841 68.0123 120.933 67.0454 118.517C65.6298 114.976 65.3244 101.235 65.6398 89.9671C65.6445 89.7771 65.6867 89.5898 65.7641 89.4162C65.8414 89.2426 65.9524 89.0859 66.0905 88.9554C66.2287 88.8248 66.3913 88.7229 66.569 88.6554C66.7467 88.588 66.936 88.5564 67.126 88.5624C67.3158 88.5676 67.5028 88.6101 67.6761 88.6876C67.8495 88.765 68.0058 88.8759 68.1363 89.0139C68.2668 89.1518 68.3688 89.3141 68.4364 89.4915C68.5041 89.6689 68.5361 89.8579 68.5307 90.0477C68.1673 103.044 68.683 114.822 69.7306 117.443C71.3655 121.529 73.845 125.103 80.8548 123.602C87.5094 122.174 90.0016 119.651 91.1117 113.216C91.9636 108.278 93.6483 94.2292 93.8559 91.457C93.8697 91.2675 93.9209 91.0827 94.0063 90.913C94.0918 90.7434 94.2099 90.5922 94.3538 90.4683C94.4978 90.3444 94.6648 90.2501 94.8453 90.1908C95.0258 90.1316 95.2162 90.1085 95.4056 90.123C95.7878 90.1519 96.143 90.3314 96.3931 90.6219C96.6432 90.9124 96.7678 91.2903 96.7396 91.6726C96.523 94.559 94.8464 108.581 93.9619 113.708C92.6515 121.309 89.263 124.756 81.4611 126.429C80.1352 126.713 78.9308 126.84 77.8361 126.841ZM37.3847 97.9847C36.7326 97.9824 36.0852 97.8753 35.4671 97.6675C30.6214 96.0507 26.0058 88.1591 21.7483 74.2092C18.5075 63.5907 16.454 52.5072 16.2736 48.9049C15.7398 38.2256 18.4894 30.6702 24.448 26.4498C36.2356 18.0978 56.0652 26.0511 56.9035 26.3936C57.2586 26.5387 57.5416 26.8189 57.6901 27.1726C57.8387 27.5262 57.8406 27.9244 57.6956 28.2795C57.5505 28.6347 57.2704 28.9176 56.9167 29.0662C56.563 29.2147 56.1648 29.2167 55.8097 29.0716C55.6185 28.9937 36.6035 21.3757 26.1137 28.8133C21.0187 32.4256 18.6797 39.1373 19.1609 48.7608C19.3123 51.7958 21.2308 62.6128 24.5132 73.3646C28.3141 85.8183 32.6396 93.6764 36.3815 94.9243C36.9687 95.12 38.7559 95.7154 41.3106 92.6432C44.2898 89.0652 47.3808 85.5817 50.5788 82.1978C50.8464 81.9309 51.2078 81.7793 51.5858 81.7755C51.9637 81.7718 52.3281 81.9161 52.601 82.1776C52.8739 82.4391 53.0335 82.797 53.0458 83.1748C53.0581 83.5525 52.9221 83.9201 52.6668 84.1988C52.6233 84.2441 48.2742 88.7908 43.5345 94.4929C41.2897 97.1926 39.1383 97.9847 37.3847 97.9847ZM100.305 85.8001C100.043 85.7998 99.7855 85.7282 99.5608 85.593C99.3362 85.4578 99.1526 85.2641 99.0295 85.0327C98.9065 84.8012 98.8487 84.5406 98.8622 84.2788C98.8758 84.017 98.9603 83.7638 99.1067 83.5463C112.576 63.559 117.304 39.4083 113.255 34.2336C108.158 27.7213 100.962 24.3201 91.8639 24.1235C85.1278 23.9785 79.7736 25.6985 78.8982 25.9985L78.678 26.0882C77.798 26.3646 77.1229 25.8825 76.8682 25.3188C76.723 24.9959 76.701 24.6309 76.8064 24.2929C76.9117 23.9548 77.1371 23.667 77.4401 23.4837C77.4817 23.4592 77.6141 23.403 77.8288 23.3242C79.316 22.7795 84.7517 21.1483 91.4842 21.2253C101.551 21.3322 109.867 25.2137 115.531 32.4519C118.21 35.8766 118.217 43.7665 115.548 54.0995C112.827 64.6347 107.708 75.9565 101.504 85.163C101.226 85.5772 100.77 85.8001 100.305 85.8001ZM100.993 95.053C98.6934 95.053 96.6317 94.7285 95.3974 93.989C94.1286 93.2287 93.8867 92.1955 93.855 91.6473C93.5088 85.5663 96.8637 84.5078 98.5747 84.0248C98.3364 83.6641 97.9974 83.24 97.6467 82.8023C96.6489 81.5553 95.2823 79.8479 94.2292 77.2941C94.0643 76.8953 93.5477 75.9682 92.9496 74.8943C89.7062 69.078 82.9573 56.975 87.2928 50.7772C89.2992 47.9089 93.2949 46.7797 99.1819 47.4096C97.4501 42.1334 89.2032 25.6288 69.6345 25.308C63.7493 25.2101 58.9226 27.0199 55.2958 30.682C47.1758 38.8827 47.4695 53.7207 47.474 53.8693C47.479 54.0591 47.4466 54.2481 47.3785 54.4254C47.3105 54.6027 47.2082 54.7648 47.0775 54.9026C46.9469 55.0403 46.7903 55.151 46.6168 55.2283C46.4434 55.3055 46.2564 55.3479 46.0666 55.3529C45.8768 55.3579 45.6878 55.3254 45.5105 55.2574C45.3332 55.1894 45.1711 55.0871 45.0333 54.9564C44.8956 54.8257 44.7849 54.6692 44.7077 54.4957C44.6304 54.3223 44.5881 54.1353 44.5831 53.9454C44.5649 53.2866 44.2622 37.7154 53.2414 28.6466C57.4437 24.4026 62.9754 22.3074 69.6826 22.417C82.2015 22.6227 90.2599 28.9873 94.8147 34.2898C99.78 40.069 102.214 46.4435 102.414 48.5714C102.564 50.1537 101.428 50.47 101.199 50.5171L100.677 50.5289C94.8999 49.6036 91.1933 50.2461 89.6608 52.4356C86.363 57.149 92.7475 68.5977 95.4735 73.4869C96.1695 74.7339 96.6716 75.6356 96.9018 76.1921C97.7972 78.3635 98.9653 79.8225 99.9033 80.9952C100.729 82.0265 101.444 82.921 101.699 83.9704C101.818 84.1789 103.503 86.6711 113.5 84.6075C116.006 84.091 117.508 84.5323 117.968 85.9216C118.871 88.6539 113.802 91.8412 110.995 93.1444C108.48 94.3135 104.466 95.053 100.993 95.053ZM96.7377 91.4089C97.0549 91.7288 98.6418 92.2807 101.928 92.1394C104.85 92.0143 107.931 91.379 109.78 90.5208C112.144 89.4224 113.723 88.1945 114.54 87.3562L114.087 87.4396C107.695 88.7591 103.174 88.5832 100.649 86.9166C100.479 86.8045 100.316 86.6832 100.16 86.5532C99.8861 86.6611 99.6332 86.7318 99.4529 86.7825C98.021 87.184 96.5402 87.6 96.7377 91.4089ZM55.4472 99.4881C53.8594 99.4881 52.1883 99.2715 50.4818 98.8447C48.7137 98.4025 45.7331 97.0712 45.7784 94.8844C45.8301 92.4312 49.398 91.6953 50.741 91.4189C55.5931 90.4193 55.9094 90.0187 57.4255 88.093C57.8678 87.532 58.4179 86.8333 59.1682 85.9959C60.282 84.7489 61.4991 84.1172 62.786 84.1172C63.6823 84.1172 64.4172 84.4208 64.903 84.6229C66.4509 85.2645 67.7423 86.8161 68.2733 88.6711C68.7527 90.345 68.5235 91.9563 67.6299 93.2078C64.6964 97.3159 60.4832 99.4881 55.4472 99.4881ZM48.9022 95.0085C49.3381 95.3457 50.2118 95.7961 51.1842 96.039C52.6623 96.4087 54.096 96.5963 55.4481 96.5963C59.5679 96.5963 62.8757 94.8907 65.2782 91.5267C65.7793 90.8253 65.6289 89.9345 65.4948 89.4659C65.2138 88.4845 64.516 87.5918 63.7974 87.2936C63.4077 87.1323 63.0842 87.0091 62.7869 87.0091C62.6274 87.0091 62.1417 87.0091 61.3242 87.9235C60.7601 88.5579 60.2179 89.2114 59.6984 89.8828C57.8098 92.2807 56.9443 93.0945 51.3256 94.2518C49.9544 94.5328 49.2511 94.8191 48.9022 95.0085ZM60.021 88.3385C59.6758 88.338 59.3422 88.214 59.0804 87.989C58.8187 87.7639 58.646 87.4527 58.5937 87.1115C58.5577 86.8714 58.5335 86.6298 58.5212 86.3874C54.8382 86.3185 51.2848 84.738 48.5869 81.9232C45.1757 78.3644 43.6233 73.4335 44.3284 68.3956C45.0942 62.9246 44.8078 58.0952 44.6537 55.5006C44.6111 54.7792 44.5803 54.2581 44.5822 53.8974C44.5849 53.4398 44.5939 52.2263 48.6503 50.17C50.0931 49.4387 52.9858 48.1627 56.1459 47.8355C61.3813 47.2945 64.8323 49.6263 65.8654 54.4022C68.654 67.2963 66.0866 72.9994 64.2115 77.1645C63.8626 77.9402 63.5327 78.6725 63.269 79.3821L63.0361 80.0074C62.0456 82.6636 61.1892 84.9582 61.452 86.672C61.4809 86.8596 61.4724 87.0512 61.4273 87.2356C61.3821 87.42 61.301 87.5938 61.1886 87.7469C61.0763 87.8999 60.9348 88.0294 60.7725 88.1278C60.6101 88.2262 60.4299 88.2917 60.2422 88.3204L60.021 88.3385ZM47.4831 54.298L47.5392 55.3302C47.6987 58.0254 47.996 63.0406 47.1912 68.7971C46.6103 72.9522 47.8791 77.0077 50.674 79.9222C52.8825 82.2259 55.7888 83.4974 58.7758 83.4974H58.8375C59.1719 82.0881 59.7274 80.6001 60.3255 78.9969L60.5566 78.3752C60.8548 77.5741 61.2037 76.7984 61.5734 75.9773C63.3778 71.968 65.6244 66.9773 63.037 55.0139C62.525 52.6441 61.2825 51.2729 59.2407 50.8207C55.0466 49.8945 48.7962 53.0492 47.4831 54.298ZM56.2102 53.6845C56.1377 54.1956 57.1464 55.5604 58.4623 55.7425C59.7754 55.9265 60.8992 54.859 60.9708 54.3478C61.0424 53.8367 60.0346 53.273 58.7187 53.0899C57.4038 52.9069 56.28 53.1733 56.2102 53.6845ZM58.7641 56.2455L58.3952 56.2201C57.5796 56.1069 56.7549 55.593 56.1903 54.8445C55.9918 54.5816 55.6683 54.0723 55.7327 53.6174C55.8242 52.9504 56.638 52.5507 57.9076 52.5507C58.1913 52.5507 58.4867 52.5716 58.784 52.6133C59.4782 52.7093 60.1225 52.9096 60.5983 53.1751C61.423 53.6355 61.4837 54.1494 61.4466 54.4149C61.3451 55.1517 60.1733 56.2455 58.7641 56.2455ZM56.6897 53.7696C56.7304 54.085 57.5116 55.1254 58.5284 55.2659L58.765 55.2822C59.7038 55.2822 60.4053 54.5436 60.4877 54.3016C60.4007 54.1367 59.7972 53.727 58.6526 53.5675C58.4062 53.5322 58.1575 53.5143 57.9086 53.5141C57.1727 53.5141 56.7821 53.6799 56.6897 53.7696ZM96.2067 52.6414C96.2783 53.1525 95.2705 54.5173 93.9556 54.7004C92.6415 54.8834 91.5168 53.8168 91.4443 53.3056C91.3755 52.7945 92.3832 52.2299 93.6973 52.0478C95.0113 51.8638 96.1342 52.1311 96.2067 52.6414ZM93.652 54.9614C92.3868 54.9614 91.2948 53.9772 91.2051 53.3383C91.1009 52.5716 92.3633 51.9889 93.6628 51.8085C93.9492 51.7686 94.2329 51.7487 94.5056 51.7487C95.6276 51.7487 96.3707 52.0777 96.445 52.6087C96.4931 52.9522 96.2293 53.4824 95.7753 53.9609C95.4753 54.2753 94.8455 54.82 93.9873 54.9387L93.652 54.9614ZM94.5066 52.2308C94.2564 52.2308 93.9954 52.2499 93.7308 52.2861C92.4249 52.4683 91.6455 52.9921 91.6836 53.273C91.7271 53.582 92.5608 54.4801 93.6529 54.4801L93.922 54.4611C94.6352 54.3623 95.1708 53.8965 95.4264 53.6283C95.8279 53.2069 95.9874 52.8099 95.9683 52.6749C95.943 52.4955 95.4608 52.2308 94.5066 52.2308ZM98.0998 81.9948C97.8379 81.995 97.5808 81.9239 97.3561 81.7891C97.1314 81.6544 96.9476 81.4611 96.8243 81.2299C96.7011 80.9987 96.643 80.7384 96.6563 80.4768C96.6696 80.2151 96.7538 79.962 96.9 79.7446C99.9794 75.1454 99.4157 70.4555 98.8711 65.9197C98.6382 63.9876 98.3989 61.9893 98.4605 60.0717C98.524 58.0988 98.775 56.4712 99.017 54.897C99.3042 53.032 99.5761 51.2702 99.4637 49.1786C99.4535 48.989 99.4807 48.7993 99.5438 48.6202C99.6069 48.4411 99.7047 48.2762 99.8315 48.1349C99.9583 47.9936 100.112 47.8787 100.283 47.7967C100.454 47.7147 100.64 47.6672 100.829 47.657C101.019 47.6467 101.209 47.674 101.388 47.737C101.567 47.8001 101.732 47.8979 101.873 48.0247C102.014 48.1515 102.129 48.3049 102.211 48.4762C102.293 48.6474 102.341 48.8331 102.351 49.0227C102.48 51.4134 102.173 53.4071 101.875 55.3365C101.646 56.8255 101.409 58.3652 101.351 60.1641C101.296 61.8625 101.513 63.6659 101.742 65.5745C102.322 70.3975 102.979 75.864 99.3033 81.3532C99.171 81.5508 98.9919 81.7128 98.782 81.8247C98.572 81.9367 98.3377 81.9951 98.0998 81.9948Z" fill="white"/>
</svg>
