<svg width="134" height="146" viewBox="0 0 134 146" fill="none" xmlns="http://www.w3.org/2000/svg">
<rect width="134" height="146" rx="10" fill="#D9D9D9"/>
<path d="M66.4007 23.6736C62.2447 23.6927 58.2777 24.0348 54.7851 24.6334C44.4984 26.3929 42.632 30.0758 42.632 36.8687V45.8385H66.9392V48.8285H33.5088C26.4449 48.8285 20.2591 52.9393 18.3238 60.7626C16.0913 69.7267 15.9928 75.3215 18.3238 84.6822C20.0514 91.6505 24.1779 96.6144 31.2428 96.6144H39.6011V85.8612C39.6011 78.0923 46.5419 71.2403 54.7861 71.2403H79.0657C85.8244 71.2403 91.2188 65.8513 91.2188 59.2805V36.8696C91.2188 30.4904 85.661 25.699 79.0657 24.6344C74.888 23.9615 70.5558 23.6555 66.4007 23.6736ZM53.2554 30.8878C55.7655 30.8878 57.817 32.9056 57.817 35.3875C57.817 37.859 55.7665 39.8577 53.2554 39.8577C50.7354 39.8577 48.6948 37.859 48.6948 35.3875C48.6938 32.9056 50.7354 30.8878 53.2554 30.8878Z" fill="url(#paint0_linear_53_696)"/>
<path d="M94.2495 48.8291V59.281C94.2495 67.3826 87.1541 74.2022 79.0645 74.2022H54.7849C48.1345 74.2022 42.6318 79.7141 42.6318 86.163V108.576C42.6318 114.953 48.3589 118.706 54.7849 120.535C62.4788 122.724 69.8577 123.12 79.0645 120.535C85.1834 118.818 91.2176 115.366 91.2176 108.576V99.6049H66.939V96.614H103.373C110.437 96.614 113.071 91.8436 115.528 84.6818C118.065 77.3094 117.956 70.2191 115.528 60.7622C113.781 53.9521 110.447 48.8281 103.373 48.8281L94.2495 48.8291ZM80.5933 105.585C83.1143 105.585 85.1549 107.584 85.1549 110.057C85.1549 112.537 83.1133 114.555 80.5933 114.555C78.0831 114.555 76.0327 112.537 76.0327 110.057C76.0327 107.584 78.0831 105.585 80.5933 105.585Z" fill="url(#paint1_linear_53_696)"/>
<path opacity="0.444" d="M99.7885 125.991C99.7885 129.368 85.204 132.106 67.2146 132.106C49.2242 132.106 34.6396 129.368 34.6396 125.991C34.6396 122.613 49.2232 119.875 67.2146 119.875C85.204 119.875 99.7885 122.612 99.7885 125.991Z" fill="url(#paint2_radial_53_696)"/>
<defs>
<linearGradient id="paint0_linear_53_696" x1="14.1756" y1="26.4783" x2="68.7091" y2="74.509" gradientUnits="userSpaceOnUse">
<stop stop-color="#5A9FD4"/>
<stop offset="1" stop-color="#306998"/>
</linearGradient>
<linearGradient id="paint1_linear_53_696" x1="91.3327" y1="101.549" x2="72.078" y2="73.6618" gradientUnits="userSpaceOnUse">
<stop stop-color="#FFD43B"/>
<stop offset="1" stop-color="#FFE873"/>
</linearGradient>
<radialGradient id="paint2_radial_53_696" cx="0" cy="0" r="1" gradientUnits="userSpaceOnUse" gradientTransform="translate(67.0829 125.816) rotate(-90) scale(6.11746 27.773)">
<stop stop-color="#B8B8B8" stop-opacity="0.498"/>
<stop offset="1" stop-color="#7F7F7F" stop-opacity="0"/>
</radialGradient>
</defs>
</svg>
