<svg width="134" height="146" viewBox="0 0 134 146" fill="none" xmlns="http://www.w3.org/2000/svg">
<path d="M0 10C0 4.47715 4.47715 0 10 0H124C129.523 0 134 4.47715 134 10V136C134 141.523 129.523 146 124 146H10C4.47715 146 0 141.523 0 136V10Z" fill="#D9D9D9"/>
<path d="M67.6552 83.9091C73.3275 83.9091 77.9257 79.3109 77.9257 73.6386C77.9257 67.9664 73.3275 63.3682 67.6552 63.3682C61.983 63.3682 57.3848 67.9664 57.3848 73.6386C57.3848 79.3109 61.983 83.9091 67.6552 83.9091Z" fill="#61DAFB"/>
<path d="M106.665 56.7014C104.683 55.9807 102.611 55.2599 100.449 54.6293C100.989 52.4671 101.44 50.3049 101.8 48.2328C103.692 36.3407 101.62 27.9621 95.854 24.7188C94.1423 23.7278 92.2504 23.2773 90.0882 23.2773C83.7817 23.2773 75.7636 27.9621 67.6553 35.8001C59.547 27.9621 51.5289 23.2773 45.2224 23.2773C43.0602 23.2773 41.1683 23.7278 39.4566 24.7188C33.6907 28.0522 31.6186 36.4307 33.5105 48.2328C33.8709 50.3049 34.3213 52.4671 34.8619 54.6293C32.6997 55.2599 30.6276 55.8906 28.6455 56.7014C17.3841 61.0258 11.2578 66.9719 11.2578 73.6387C11.2578 80.3055 17.4741 86.2515 28.6455 90.5759C30.6276 91.2967 32.6997 92.0174 34.8619 92.648C34.3213 94.8102 33.8709 96.9725 33.5105 99.0446C31.6186 110.937 33.6907 119.315 39.4566 122.559C41.1683 123.55 43.0602 124 45.2224 124C51.6189 124 59.6371 119.315 67.6553 111.477C75.7636 119.315 83.7817 124 90.0882 124C92.2504 124 94.1423 123.55 95.854 122.559C101.62 119.225 103.692 110.847 101.8 99.0446C101.44 96.9725 100.989 94.8102 100.449 92.648C102.611 92.0174 104.683 91.3868 106.665 90.5759C117.927 86.2515 124.053 80.3055 124.053 73.6387C124.053 66.9719 117.927 61.0258 106.665 56.7014ZM93.3315 29.2234C97.0252 31.3856 98.2865 38.0524 96.7549 47.512C96.4847 49.404 96.0342 51.386 95.4937 53.4581C90.8089 52.377 85.8538 51.6563 80.6285 51.2058C77.5654 46.8814 74.4122 43.0075 71.259 39.4939C77.9258 32.9172 84.6826 28.4126 90.1782 28.4126C91.3494 28.4126 92.4305 28.6829 93.3315 29.2234ZM83.2412 82.6479C81.6195 85.5308 79.7276 88.4137 77.7456 91.2967C74.4122 91.5669 71.0788 91.657 67.6553 91.657C64.1417 91.657 60.8083 91.5669 57.565 91.2967C55.583 88.4137 53.7811 85.5308 52.1595 82.6479C50.4478 79.6748 48.8261 76.6117 47.3846 73.6387C48.8261 70.6656 50.4478 67.6025 52.1595 64.6295C53.7811 61.7466 55.6731 58.8636 57.6551 55.9807C60.9885 55.7104 64.3219 55.6203 67.7454 55.6203C71.259 55.6203 74.5924 55.7104 77.8357 55.9807C79.8177 58.8636 81.6195 61.7466 83.2412 64.6295C84.9529 67.6025 86.5746 70.6656 88.016 73.6387C86.4845 76.6117 84.9529 79.5847 83.2412 82.6479ZM90.7188 79.6748C92.0702 82.828 93.1513 85.8912 94.1423 88.9543C91.0792 89.675 87.8359 90.2156 84.4124 90.666C85.4935 88.9543 86.6647 87.1524 87.6557 85.2605C88.7368 83.3686 89.7278 81.4767 90.7188 79.6748ZM67.6553 104.09C65.4931 101.747 63.421 99.2247 61.439 96.6121C63.5111 96.7022 65.5832 96.7923 67.6553 96.7923C69.7274 96.7923 71.7995 96.7022 73.8716 96.6121C71.8896 99.2247 69.8175 101.747 67.6553 104.09ZM50.8982 90.5759C47.4747 90.1255 44.2314 89.5849 41.1683 88.8642C42.1593 85.8912 43.2404 82.7379 44.5918 79.5847C45.5828 81.3866 46.5738 83.2785 47.6549 85.0803C48.736 87.0623 49.8171 88.7741 50.8982 90.5759ZM44.5918 67.6025C43.2404 64.4493 42.1593 61.3862 41.1683 58.3231C44.2314 57.6023 47.4747 57.0618 50.8982 56.6113C49.8171 58.3231 48.6459 60.1249 47.6549 62.0168C46.5738 63.9088 45.5828 65.8007 44.5918 67.6025ZM67.6553 43.1876C69.8175 45.53 71.8896 48.0526 73.8716 50.6653C71.7995 50.5752 69.7274 50.4851 67.6553 50.4851C65.5832 50.4851 63.5111 50.5752 61.439 50.6653C63.421 48.0526 65.4931 45.53 67.6553 43.1876ZM87.6557 62.1069L84.4124 56.7014C87.8359 57.1519 91.0792 57.6924 94.1423 58.4132C93.1513 61.3862 92.0702 64.5394 90.7188 67.6926C89.7278 65.8007 88.7368 63.9088 87.6557 62.1069ZM38.5556 47.512C37.0241 38.0524 38.2854 31.3856 41.9791 29.2234C42.88 28.6829 43.9611 28.4126 45.1323 28.4126C50.5378 28.4126 57.2947 32.8271 64.0516 39.4939C60.8984 42.9174 57.7452 46.8814 54.6821 51.2058C49.4567 51.6563 44.5017 52.4671 39.8169 53.4581C39.2764 51.386 38.916 49.404 38.5556 47.512ZM16.303 73.6387C16.303 69.4044 21.4382 64.8998 30.4474 61.5664C32.2492 60.8456 34.2312 60.215 36.2132 59.6744C37.6547 64.179 39.4565 68.9539 41.6188 73.7288C39.4565 78.5036 37.5646 83.1884 36.2132 87.693C23.7806 84.0893 16.303 78.6838 16.303 73.6387ZM41.9791 118.054C38.2854 115.892 37.0241 109.225 38.5556 99.7653C38.8259 97.8734 39.2764 95.8914 39.8169 93.8192C44.5017 94.9003 49.4567 95.6211 54.6821 96.0715C57.7452 100.396 60.8984 104.27 64.0516 107.783C57.3848 114.36 50.6279 118.865 45.1323 118.865C43.9611 118.865 42.88 118.594 41.9791 118.054ZM96.7549 99.7653C98.2865 109.225 97.0252 115.892 93.3315 118.054C92.4305 118.594 91.3494 118.865 90.1782 118.865C84.7727 118.865 78.0158 114.45 71.259 107.783C74.4122 104.36 77.5654 100.396 80.6285 96.0715C85.8538 95.6211 90.8089 94.8103 95.4937 93.8192C96.0342 95.8914 96.3946 97.8734 96.7549 99.7653ZM104.863 85.711C103.061 86.4317 101.079 87.0624 99.0973 87.6029C97.6559 83.0983 95.854 78.3234 93.6918 73.5486C95.854 68.7737 97.746 64.0889 99.0973 59.5843C111.53 63.188 119.008 68.5935 119.008 73.6387C119.008 77.873 113.782 82.3776 104.863 85.711Z" fill="#61DAFB"/>
</svg>
