<svg width="134" height="146" viewBox="0 0 134 146" fill="none" xmlns="http://www.w3.org/2000/svg">
<path d="M0 10C0 4.47715 4.47715 0 10 0H124C129.523 0 134 4.47715 134 10V136C134 141.523 129.523 146 124 146H10C4.47715 146 0 141.523 0 136V10Z" fill="#D9D9D9"/>
<g clip-path="url(#clip0_53_708)">
<path d="M112.076 23.7087C110.535 27.4046 108.563 30.9054 106.2 34.1381C95.8483 23.792 81.812 17.9793 67.1762 17.9775C36.9081 17.9775 12 42.9063 12 73.2078C11.9997 80.6905 13.5187 88.0953 16.465 94.9734C19.4113 101.852 23.7235 108.06 29.1402 113.222L31.1752 115.027C41.1207 123.412 53.7086 128.015 66.7173 128.022C95.4952 128.022 119.687 105.472 121.735 76.7322C123.24 62.6633 119.113 44.8691 112.076 23.7087ZM36.9795 113.537C36.5364 114.082 35.9772 114.523 35.3426 114.825C34.7079 115.127 34.0138 115.284 33.3108 115.285C30.7172 115.285 28.5954 113.15 28.5954 110.556C28.5954 107.964 30.7309 105.829 33.3108 105.829C34.385 105.829 35.4463 106.201 36.2773 106.889C38.2977 108.522 38.6131 111.516 36.9795 113.537ZM111.847 97.0039C98.2323 115.156 69.1536 109.038 50.5086 109.912C50.5086 109.912 47.1983 110.113 43.8734 110.657C43.8734 110.657 45.1195 110.127 46.7394 109.51C59.8242 104.955 66.0152 104.066 73.9687 99.9834C88.945 92.3616 103.749 75.6854 106.831 58.3355C101.127 75.0263 83.8429 89.3675 68.0931 95.1984C57.302 99.1816 37.8105 103.05 37.8105 103.05L37.0224 102.634C23.752 96.1729 23.3498 67.4191 47.4698 58.1353C58.0324 54.0661 68.1361 56.3014 79.5443 53.5789C91.7259 50.6854 105.814 41.5442 111.546 29.6246C117.966 48.6942 125.692 78.5506 111.847 97.0039Z" fill="#77BC1F"/>
</g>
<defs>
<clipPath id="clip0_53_708">
<rect width="110" height="110" fill="white" transform="translate(12 18)"/>
</clipPath>
</defs>
</svg>
