<svg width="134" height="146" viewBox="0 0 134 146" fill="none" xmlns="http://www.w3.org/2000/svg">
<path d="M0 10C0 4.47715 4.47715 0 10 0H124C129.523 0 134 4.47715 134 10V136C134 141.523 129.523 146 124 146H10C4.47715 146 0 141.523 0 136V10Z" fill="#D9D9D9"/>
<path d="M9.45605 55.5799C9.45605 55.5799 6.59459 53.5087 10.0327 50.7465L18.0376 43.5678C18.0376 43.5678 20.3309 41.1487 22.7538 43.2577L96.6536 99.3412V126.235C96.6536 126.235 96.6167 130.459 91.2114 129.994L9.45605 55.5799Z" fill="#2489CA"/>
<path d="M28.507 72.9131L9.45611 90.2719C9.45611 90.2719 7.49932 91.7305 9.45611 94.3414L18.3005 102.402C18.3005 102.402 20.4009 104.666 23.5072 102.092L43.6982 86.7421L28.507 72.9131Z" fill="#1070B3"/>
<path d="M61.9475 73.057L96.8796 46.3189L96.6537 19.5693C96.6537 19.5693 95.162 13.7311 90.1849 16.7722L43.6982 59.1798L61.9475 73.057Z" fill="#0877B9"/>
<path d="M91.2102 130.027C93.2379 132.11 95.6976 131.426 95.6976 131.426L122.92 117.982C126.405 115.6 125.917 112.646 125.917 112.646V32.346C125.917 28.8152 122.314 27.5967 122.314 27.5967L98.7179 16.1953C93.5631 13.0011 90.1846 16.7719 90.1846 16.7719C90.1846 16.7719 94.5264 13.6363 96.6533 19.5701V125.745C96.6533 126.475 96.4983 127.191 96.1882 127.838C95.5681 129.097 94.2163 130.267 90.9853 129.776L91.2102 130.027Z" fill="#3C99D4"/>
</svg>
